<svg id="Outline" height="512" viewBox="0 0 512 512" width="512" xmlns="http://www.w3.org/2000/svg"><path d="m456 136h-72v-72a40.045 40.045 0 0 0 -40-40h-288a40.045 40.045 0 0 0 -40 40v304a8 8 0 0 0 14.4 4.8l45.6-60.8h52v72a40.045 40.045 0 0 0 40 40h268l45.6 60.8a8 8 0 0 0 14.4-4.8v-304a40.045 40.045 0 0 0 -40-40zm-384 160a8 8 0 0 0 -6.4 3.2l-33.6 44.8v-280a24.028 24.028 0 0 1 24-24h288a24.028 24.028 0 0 1 24 24v208a24.028 24.028 0 0 1 -24 24zm408 160-33.6-44.8a8 8 0 0 0 -6.4-3.2h-272a24.028 24.028 0 0 1 -24-24v-72h200a40.045 40.045 0 0 0 40-40v-8h40a8 8 0 0 0 0-16h-40v-32h40a8 8 0 0 0 0-16h-40v-48h72a24.028 24.028 0 0 1 24 24z" fill="#10375C"/><path d="m200 144a24 24 0 1 0 24 24 24.027 24.027 0 0 0 -24-24zm0 32a8 8 0 1 1 8-8 8.009 8.009 0 0 1 -8 8z" fill="#10375C"/><path d="m136 144a24 24 0 1 0 24 24 24.027 24.027 0 0 0 -24-24zm0 32a8 8 0 1 1 8-8 8.009 8.009 0 0 1 -8 8z" fill="#10375C"/><path d="m264 144a24 24 0 1 0 24 24 24.027 24.027 0 0 0 -24-24zm0 32a8 8 0 1 1 8-8 8.009 8.009 0 0 1 -8 8z" fill="#10375C"/><circle cx="200" cy="352" r="8" fill="#10375C"/><path d="m424 296h-24a8 8 0 0 0 0 16h24a8 8 0 0 0 0-16z" fill="#10375C"/><path d="m424 344h-64a8 8 0 0 0 0 16h64a8 8 0 0 0 0-16z" fill="#10375C"/><path d="m328 344h-96a8 8 0 0 0 0 16h96a8 8 0 0 0 0-16z" fill="#10375C"/></svg>