<svg width="223" height="369" viewBox="0 0 223 369" fill="none" xmlns="http://www.w3.org/2000/svg">
<path fill-rule="evenodd" clip-rule="evenodd" d="M209.615 204.822C207.801 229.496 90.9146 302.138 90.2326 304.177C89.9295 305.083 102.057 333.718 126.615 390.082L116.397 394.038C78.7295 334.344 60.863 301.317 62.7977 294.956C65.5677 285.85 95.7979 255.892 153.488 205.084L209.615 204.822Z" fill="#B28B67"/>
<path fill-rule="evenodd" clip-rule="evenodd" d="M123.926 377.353L107.244 383.403C72.068 343.858 58.2799 311.229 60.7939 294.605C62.47 283.521 92.5959 253.614 151.172 204.882L210.812 204.882C208.777 262.023 100.438 304.394 98.9886 306.829C97.5395 309.264 111.8 333.113 123.926 377.353Z" fill="#12B1AA"/>
<path fill-rule="evenodd" clip-rule="evenodd" d="M196.176 204.822L248.246 329.373L299.422 434.67H287.348L155.248 204.822H196.176Z" fill="#997659"/>
<path fill-rule="evenodd" clip-rule="evenodd" d="M294.801 412.796L267.972 417.809C247.228 387.422 160.413 262.824 150.894 204.822H210.622C242.409 246.752 275.027 381.906 294.801 412.796Z" fill="#1BC5BD"/>
<path fill-rule="evenodd" clip-rule="evenodd" d="M177.549 83.6212C180.743 77.2637 182.19 70.0882 179.889 63.026C173.261 42.6779 145.307 54.4904 142.254 66.3563C139.202 78.2223 146.483 104.574 154.262 104.618C157.364 104.636 163.122 101.261 168.503 95.9056L171.471 124.729L194.906 118.883L177.549 83.6212Z" fill="#CFAF92"/>
<path fill-rule="evenodd" clip-rule="evenodd" d="M141.212 71.6018C141.106 70.1888 141.298 68.5425 141.436 67.1462C141.615 65.3463 142.136 63.6334 142.769 61.9839C143.96 58.8783 145.585 55.937 147.542 53.344C151.116 48.6077 156.294 45.0985 162.067 44.3789C164.982 44.0155 167.995 44.4003 170.776 45.598C173.289 46.6801 175.911 48.5417 178.689 48.0298C181.71 47.4726 183.789 44.1885 185.775 41.9852C188.014 39.5012 190.547 37.4662 193.564 36.1683C198.619 33.9943 204.008 34.5244 208.707 37.9037C213.707 41.4999 218.183 47.4863 217.151 54.161C216.959 55.4017 216.589 56.4999 215.913 57.5018C215.294 58.4206 214.265 59.4904 214.228 60.721C214.189 62.029 215.609 63.3495 216.282 64.3529C217.247 65.7906 218.129 67.3322 218.39 69.0912C218.819 71.9798 217.703 75.1182 216.277 77.4428C214.825 79.8084 212.73 81.4799 210.329 82.6085C208.726 83.362 207.048 83.9756 205.303 84.2781C204.436 84.4283 203.627 84.3813 202.756 84.4006C201.91 84.4193 201.514 84.7421 200.943 85.3476C198.288 88.1606 195.086 89.7913 191.362 90.4002C188.22 90.9139 184.486 91.0594 181.453 89.5945C178.085 87.9676 177.342 84.7508 177.145 81.165C176.535 81.6801 174.664 82.3716 175.474 80.7229C175.795 80.07 176.601 79.6359 177.106 79.1728C177.695 78.6338 178.267 77.9841 178.645 77.2497C180.172 74.2847 176.783 69.8711 173.898 69.724C169.612 69.5056 170.112 75.3136 167.628 77.4677C166.2 78.7064 164.206 77.9976 162.692 77.1438C160.664 76 159.032 74.2214 157.545 72.3684C156.319 70.8425 155.143 69.2786 153.905 67.7651C153.327 67.0583 151.451 65.1202 151.884 64.0501C148.89 64.1977 146.004 66.166 143.931 68.3206C143.074 69.2113 142.474 70.1071 142.213 71.3673C142.157 71.6373 142.083 72.417 141.773 72.5255C141.196 72.7276 141.238 71.9568 141.212 71.6018Z" fill="#191847"/>
<path fill-rule="evenodd" clip-rule="evenodd" d="M113.638 196.11L81.9546 220.126C73.2911 222.616 66.0697 225.651 60.2903 229.232C58.9327 230.508 57.3096 233.07 63.0231 232.533C68.7367 231.995 74.7707 231.685 75.594 233.613C76.4173 235.542 72.9957 237.925 74.6372 240.518C75.7315 242.246 80.681 237.778 89.4857 227.112L121.037 213.441L113.638 196.11ZM236.874 194.767L215.85 195.217C229.56 236.701 236.954 258.71 238.034 261.244C240.462 266.946 235.688 275.778 233.663 280.514C240.578 283.451 239.65 272.146 248.375 276.003C256.34 279.523 262.465 286.047 271.496 280.282C272.606 279.573 273.79 276.956 270.784 274.98C263.293 270.058 252.471 261.402 250.979 258.517C248.944 254.582 244.242 233.332 236.874 194.767Z" fill="#CFAF92"/>
<path fill-rule="evenodd" clip-rule="evenodd" d="M175.592 108.001L166.866 106.668C135.071 134.985 122.743 188.535 83.6691 217.471L93.3974 229.053C161.89 219.396 177.769 154.063 175.592 108.001Z" fill="#127681"/>
<path fill-rule="evenodd" clip-rule="evenodd" d="M215.415 216.157C180.532 216.766 154.872 217.214 138.436 217.501C134.919 217.563 135.493 212.496 135.957 209.936C141.312 180.392 163.667 148.256 162.936 106.348L185.08 102.494C203.959 131.573 210.941 167.658 215.415 216.157Z" fill="#DDE3E9"/>
<path fill-rule="evenodd" clip-rule="evenodd" d="M213.309 130.908C216.518 129.929 219.034 127.733 220.858 124.319C228.719 109.602 225.648 101.628 216.929 99.142C208.21 96.6557 200.57 102.224 186.752 102.465C186 102.479 185.312 102.537 184.689 102.642L177.745 103.158C158.975 170.78 154.258 215.76 163.593 238.098L224.181 237.04C227.917 245.308 231.474 252.258 234.854 257.889L251.363 257.6C252.044 207.571 239.36 165.341 213.309 130.908Z" fill="#127681"/>
<path fill-rule="evenodd" clip-rule="evenodd" d="M210.385 202.72C208.757 218.622 205.861 230.192 201.697 237.432L224.182 237.04C219.825 227.395 215.226 215.955 210.385 202.72Z" fill="black" fill-opacity="0.1"/>
</svg>
